<?xml version="1.0" encoding="UTF-8"?>
<svg version="1.1" xmlns="http://www.w3.org/2000/svg" width="534" height="534">
<path d="M0 0 C11.39552633 9.62366095 21.88255649 20.19388699 31 32 C31.50128418 32.64614258 32.00256836 33.29228516 32.51904297 33.95800781 C34.16768725 36.09015585 35.80468396 38.23071116 37.4375 40.375 C38.21867187 41.39255371 38.21867187 41.39255371 39.015625 42.43066406 C41.5764729 45.83442957 43.67648584 48.89472854 45 53 C46.36125 53.0928125 46.36125 53.0928125 47.75 53.1875 C53.91659197 54.04502199 60.45527219 56.79056674 65.72460938 60.07495117 C68.95271969 61.38732349 71.69975353 61.1515152 75.17578125 61.0546875 C76.64190293 61.02545487 78.10805084 60.99751703 79.57421875 60.97070312 C80.34556152 60.95402588 81.1169043 60.93734863 81.91162109 60.92016602 C106.48272651 60.4579274 129.95815266 63.67348739 153.9375 68.875 C154.6785498 69.03363525 155.41959961 69.19227051 156.18310547 69.35571289 C171.9359281 72.77099233 186.1704148 78.12946833 200.3203125 85.9140625 C201.13757813 86.34460938 201.95484375 86.77515625 202.796875 87.21875 C203.51198242 87.60998047 204.22708984 88.00121094 204.96386719 88.40429688 C207.03915757 89.23126489 207.03915757 89.23126489 209.17333984 88.19506836 C211.05340529 86.96506029 212.37007263 85.72605485 213.875 84.0625 C219.37608048 78.40926198 225.73646729 73.76390465 232 69 C232.8981543 68.31067383 232.8981543 68.31067383 233.81445312 67.60742188 C255.60772271 50.93640064 283.47999962 31.27250283 312 33 C316.97703863 33.93695546 320.58036043 36.75536135 323.65234375 40.6875 C343.2020982 74.23374532 329.05995052 129.63476209 320.04150391 164.72998047 C315.41154615 181.84786499 310.08165769 199.32282371 302.8671875 215.54760742 C301.95228766 218.13492976 301.88240144 219.5569236 302.2421875 222.24609375 C302.33902832 223.06964355 302.43586914 223.89319336 302.53564453 224.74169922 C302.70362549 226.07612061 302.70362549 226.07612061 302.875 227.4375 C303.94047429 237.09679982 304.18076497 246.67030606 304.125 256.375 C304.1212738 257.0540036 304.11754761 257.7330072 304.1137085 258.43258667 C304.08952415 262.28858843 304.05088789 266.14426375 304 270 C305.28261719 269.84144531 306.56523437 269.68289063 307.88671875 269.51953125 C312.86728494 268.97046942 317.80411269 268.74707638 322.8125 268.6875 C323.64458984 268.65849609 324.47667969 268.62949219 325.33398438 268.59960938 C331.35474681 268.53684281 331.35474681 268.53684281 334.546875 270.828125 C336.50673091 273.757372 336.51448337 275.54561166 336 279 C334.30699832 281.34919302 333.32027254 281.93391397 330.4597168 282.52416992 C329.46625244 282.59224854 328.47278809 282.66032715 327.44921875 282.73046875 C325.81243164 282.85131836 325.81243164 282.85131836 324.14257812 282.97460938 C323.00240234 283.04486328 321.86222656 283.11511719 320.6875 283.1875 C319.55892578 283.26935547 318.43035156 283.35121094 317.26757812 283.43554688 C312.16584007 283.79287873 307.11584599 284.04039451 302 284 C301.96261719 284.64324219 301.92523438 285.28648437 301.88671875 285.94921875 C301.33646545 293.51250426 299.85653043 300.65561233 298 308 C299.258125 308.061875 300.51625 308.12375 301.8125 308.1875 C307.30207381 308.74911346 312.58824445 309.93503993 317.9375 311.25 C318.77837158 311.44231201 319.61924316 311.63462402 320.4855957 311.83276367 C326.48019261 313.37153231 326.48019261 313.37153231 329.07421875 316.5078125 C330.20155671 319.54258726 330.11430886 320.97544737 329 324 C327.671875 325.65234375 327.671875 325.65234375 326 327 C319.20206177 326.88279417 312.67386532 325.05911863 306.11669922 323.37280273 C301.97645498 322.3360795 298.30747895 321.78971363 294 322 C293.59007812 323.03640625 293.18015625 324.0728125 292.7578125 325.140625 C292.2136341 326.51045339 291.66935813 327.88024302 291.125 329.25 C290.85558594 329.93191406 290.58617187 330.61382812 290.30859375 331.31640625 C288.9939219 334.61911845 287.61848745 337.83631509 286 341 C286.77863403 341.42297363 286.77863403 341.42297363 287.57299805 341.85449219 C289.9472785 343.14796522 292.31738816 344.44890545 294.6875 345.75 C295.50412109 346.1934375 296.32074219 346.636875 297.16210938 347.09375 C308.49399821 353.33317057 308.49399821 353.33317057 310.0625 358.5 C310 362 310 362 308.5 364.5 C304.91874388 366.64875367 303.04114387 365.91397067 299 365 C296.16845074 363.71780214 293.53370215 362.16827569 290.875 360.5625 C284.64759851 356.86012898 284.64759851 356.86012898 278 354 C277.64421875 355.04800781 277.64421875 355.04800781 277.28125 356.1171875 C275.77955148 359.49600917 273.77168386 362.24079065 271.5 365.125 C270.8356897 365.97433105 270.8356897 365.97433105 270.15795898 366.84082031 C262.64184937 376.34128919 254.68630401 384.68585207 245 392 C244.08347656 392.70511719 243.16695313 393.41023438 242.22265625 394.13671875 C189.23901579 432.91712314 122.71039689 431.92750451 60.71484375 422.43359375 C30.9475577 417.7677743 30.9475577 417.7677743 18 413 C17.85449707 413.63059326 17.70899414 414.26118652 17.55908203 414.91088867 C15.32420345 424.22879939 12.53326687 433.35806509 9.73007202 442.51766968 C8.27528904 447.27267451 6.8304966 452.03070635 5.38671875 456.7890625 C5.09881973 457.73768661 4.81092072 458.68631073 4.51429749 459.66368103 C1.84214418 468.48671967 -0.75434729 477.33080663 -3.3125 486.1875 C-3.50499329 486.85383453 -3.69748657 487.52016907 -3.89581299 488.20669556 C-4.93402959 491.80346684 -5.96805002 495.40142682 -7 499 C-7.63639908 498.82590103 -8.27279816 498.65180206 -8.92848206 498.47242737 C-16.47742748 496.41012347 -24.03282358 494.37233115 -31.58984375 492.33984375 C-60.09029646 484.66867782 -88.5869191 476.99033257 -117 469 C-114.97493146 461.83601652 -112.50602757 454.93619748 -109.8125 448 C-95.4049664 413.58840828 -95.4049664 413.58840828 -99.29638672 378.07373047 C-101.36851005 373.6424509 -103.49473587 369.24443402 -105.70751953 364.8815918 C-110.7828694 354.83221056 -112.3903725 347.25608289 -112.375 336 C-112.3747583 334.34919434 -112.3747583 334.34919434 -112.37451172 332.66503906 C-112.23602275 322.70258013 -110.81775982 313.54602026 -106.8515625 304.33203125 C-105.94595741 301.85200262 -105.87176044 300.52047807 -106.25 297.9375 C-106.35828125 297.16019531 -106.4665625 296.38289063 -106.578125 295.58203125 C-107.03909824 292.7607043 -107.51758557 289.94273881 -108 287.125 C-109.97745486 275.37832782 -110.11761167 263.87877842 -110 252 C-110.69561035 251.97494385 -111.3912207 251.9498877 -112.10791016 251.92407227 C-115.28043455 251.80754026 -118.45270355 251.68507432 -121.625 251.5625 C-123.26662109 251.50352539 -123.26662109 251.50352539 -124.94140625 251.44335938 C-126.00488281 251.40146484 -127.06835938 251.35957031 -128.1640625 251.31640625 C-129.13811035 251.27974854 -130.1121582 251.24309082 -131.11572266 251.20532227 C-139.38321334 250.61678666 -139.38321334 250.61678666 -142 248 C-142.63839286 242.25446429 -142.63839286 242.25446429 -142 240 C-137.97435013 236.52826707 -133.88216128 236.60553948 -128.8125 236.75 C-128.10802734 236.75515625 -127.40355469 236.7603125 -126.67773438 236.765625 C-121.04151619 236.8472354 -115.64829554 237.43517045 -110 238 C-108.68 231.07 -107.36 224.14 -106 217 C-109.41963214 214.72024524 -112.78059785 213.67194612 -116.6875 212.5625 C-117.84584351 212.23209717 -117.84584351 212.23209717 -119.02758789 211.89501953 C-126.94984996 209.77899585 -134.96233661 208.84265236 -143.11401367 208.07641602 C-144.58704956 207.92644165 -144.58704956 207.92644165 -146.08984375 207.7734375 C-146.96503662 207.69528809 -147.84022949 207.61713867 -148.74194336 207.53662109 C-151.39100117 206.90707962 -152.34685427 206.1317306 -154 204 C-154.96097201 201.11708398 -155.22621077 199.62642982 -154.1875 196.75 C-153 195 -153 195 -151 194 C-136.15484771 192.70819645 -121.19851904 195.87670206 -107.12231445 200.4206543 C-104.8843102 201.13167138 -104.8843102 201.13167138 -102 201 C-101.13310822 198.42032203 -100.28126211 195.83723873 -99.4375 193.25 C-99.19064453 192.52039063 -98.94378906 191.79078125 -98.68945312 191.0390625 C-98.46064453 190.33007812 -98.23183594 189.62109375 -97.99609375 188.890625 C-97.78138428 188.24125977 -97.5666748 187.59189453 -97.34545898 186.92285156 C-96.92461952 184.58042638 -97.13119257 183.2126197 -98 181 C-100.244731 179.22971676 -102.40647548 177.7041243 -104.8125 176.1875 C-105.81724365 175.53491211 -105.81724365 175.53491211 -106.84228516 174.86914062 C-112.05587705 171.51286767 -117.38234966 168.38259006 -122.8046875 165.375 C-125 164 -125 164 -126 162 C-126.57003257 155.72964169 -126.57003257 155.72964169 -124.4375 153 C-121.07352506 151.61990772 -118.40659864 152.01524496 -115 153 C-111.85226924 154.54714715 -108.94046215 156.4056399 -106 158.3125 C-104.45888218 159.28862748 -102.91722288 160.26390064 -101.375 161.23828125 C-100.64152344 161.70572754 -99.90804687 162.17317383 -99.15234375 162.65478516 C-96.15133986 164.53041259 -93.08768563 166.27138877 -90 168 C-89.60844727 167.23091309 -89.60844727 167.23091309 -89.20898438 166.44628906 C-87.98019578 164.04358773 -86.7401327 161.64686466 -85.5 159.25 C-85.09007813 158.44433594 -84.68015625 157.63867188 -84.2578125 156.80859375 C-83.83242187 155.99003906 -83.40703125 155.17148438 -82.96875 154.328125 C-82.51588623 153.44930664 -82.06302246 152.57048828 -81.59643555 151.66503906 C-80 149 -80 149 -77.88208008 146.63964844 C-68.86563257 136.10765553 -71.24635769 122.81190796 -71.6875 109.75 C-72.29140209 87.42787968 -71.78261204 65.80464322 -66.1875 44.0625 C-65.92888184 43.02875244 -65.67026367 41.99500488 -65.40380859 40.92993164 C-60.87850413 23.29878631 -54.54406414 -0.4426178 -39.375 -12 C-24.70958532 -18.17491145 -11.02766884 -9.06263211 0 0 Z " fill="#FEBF22" transform="translate(169,27)"/>
<path d="M0 0 C3.1093146 1.28478799 3.1093146 1.28478799 6.375 1.97265625 C6.96023437 1.67101562 7.54546875 1.369375 8.1484375 1.05859375 C13.96605265 -1.77876943 23.16098895 -0.76581104 29.3671875 0.66015625 C38.5699332 4.10043502 44.98191759 9.88303263 50.375 17.97265625 C50.375 19.29265625 50.375 20.61265625 50.375 21.97265625 C51.26960938 21.91464844 52.16421875 21.85664063 53.0859375 21.796875 C61.56091131 21.48064463 67.26282234 22.29932878 74.375 26.97265625 C75.7053125 27.80796875 75.7053125 27.80796875 77.0625 28.66015625 C84.56560185 36.1632581 89.36752071 44.60633458 89.75 55.28515625 C89.52216613 63.04235694 87.39259924 70.30867686 84.6875 77.53515625 C82.53059955 83.80151967 82.51603088 90.49506394 84.375 96.84765625 C87.10324378 106.30736377 85.33114778 116.12008628 82.625 125.34765625 C82.31916992 126.43723633 82.01333984 127.52681641 81.69824219 128.64941406 C78.35845673 140.37899873 74.71078079 152.02119771 71.08789062 163.66577148 C67.29421176 175.8746432 63.6621697 188.12459364 60.125 200.41015625 C59.8825354 201.25227661 59.6400708 202.09439697 59.39025879 202.96203613 C58.04719889 207.63092134 56.70892053 212.30115208 55.375 216.97265625 C54.42040138 216.7115078 54.42040138 216.7115078 53.44651794 216.44508362 C45.89757252 214.38277972 38.34217642 212.3449874 30.78515625 210.3125 C2.28470354 202.64133407 -26.2119191 194.96298882 -54.625 186.97265625 C-52.59993146 179.80867277 -50.13102757 172.90885373 -47.4375 165.97265625 C-33.0299664 131.56106453 -33.0299664 131.56106453 -36.92138672 96.04638672 C-38.99351005 91.61510715 -41.11973587 87.21709027 -43.33251953 82.85424805 C-51.78247353 66.12302529 -52.31332028 46.54404814 -46.94921875 28.55078125 C-42.5982279 16.79412161 -37.13867901 5.39803536 -25.875 -1.08984375 C-17.01314822 -4.9982868 -8.70141722 -3.61264197 0 0 Z " fill="#FE9B17" transform="translate(106.625,309.02734375)"/>
<path d="M0 0 C4.28722264 3.3345065 8.07368336 6.97105008 9.8125 12.1875 C10.44934965 17.60072203 9.50129831 20.83890718 6.4765625 25.20703125 C-1.08088033 34.20145265 -12.04644387 38.40223597 -23.1875 41.1875 C-24.5146261 45.1688783 -24.25665913 49.03795227 -24.1875 53.1875 C-23.27871094 53.455625 -22.36992187 53.72375 -21.43359375 54 C1.40479975 61.12089397 20.02181 74.16585825 34.5 93.375 C34.94690186 93.94508789 35.39380371 94.51517578 35.85424805 95.10253906 C38.18024214 98.32550947 38.8212716 99.97890716 38.65234375 103.99609375 C37.4375 108.6125 37.4375 108.6125 34.8125 110.1875 C28.71587314 111.69894027 28.71587314 111.69894027 25.06640625 109.6328125 C24.17824219 108.86710937 23.29007813 108.10140625 22.375 107.3125 C11.15724488 98.1808474 -1.62801184 92.03804861 -15.1875 87.1875 C-15.99832031 86.89359375 -16.80914062 86.5996875 -17.64453125 86.296875 C-20.13853075 85.47573331 -22.63982878 84.82441781 -25.1875 84.1875 C-26.45078125 83.83558594 -27.7140625 83.48367188 -29.015625 83.12109375 C-40.29043414 80.25680348 -51.36971531 79.78112463 -62.9375 79.75 C-63.67177216 79.74400787 -64.40604431 79.73801575 -65.16256714 79.73184204 C-78.09656418 79.66162804 -90.41166697 81.0110886 -102.6875 85.375 C-107.515276 87.07390487 -111.08854227 87.91592253 -116.1875 87.1875 C-118.6875 85.5625 -118.6875 85.5625 -120.1875 83.1875 C-120.80730393 79.54615193 -120.65342897 77.87847718 -118.578125 74.80078125 C-115.82415305 71.79031192 -112.82549903 69.53917608 -109.4375 67.3125 C-108.78136719 66.88050293 -108.12523437 66.44850586 -107.44921875 66.00341797 C-90.31273709 55.04923911 -71.39955898 49.92052423 -51.125 50.125 C-49.8265918 50.13176758 -49.8265918 50.13176758 -48.50195312 50.13867188 C-46.39710461 50.15030087 -44.29229242 50.16822927 -42.1875 50.1875 C-41.35312103 45.79397323 -40.80256161 41.65706245 -41.1875 37.1875 C-43.33869988 34.32686187 -46.12391486 32.95780698 -49.1875 31.1875 C-56.34146211 25.28028647 -62.13783938 17.37568222 -63.49609375 8.07421875 C-63.7560302 3.63954546 -63.44693066 0.84741846 -60.625 -2.6875 C-45.75824219 -17.83476267 -15.80171118 -8.98528675 0 0 Z " fill="#442C0D" transform="translate(291.1875,223.8125)"/>
<path d="M0 0 C5.11396118 5.24181021 5.86767126 12.17029392 5.91699219 19.26147461 C5.89620605 20.64798218 5.89620605 20.64798218 5.875 22.0625 C5.86194824 23.54278687 5.86194824 23.54278687 5.84863281 25.05297852 C5.52108814 42.1376548 3.40331005 59.17654157 -1.5 75.5625 C-1.95197754 77.09849854 -1.95197754 77.09849854 -2.41308594 78.66552734 C-3.45071783 82.17663046 -4.50282807 85.68298772 -5.5625 89.1875 C-5.9030542 90.31534912 -6.2436084 91.44319824 -6.59448242 92.60522461 C-10.02117285 103.694225 -10.02117285 103.694225 -12.5 107.5625 C-17.19569551 109.39302537 -17.19569551 109.39302537 -20.5 108.5625 C-23.71978775 105.99663433 -26.03848125 102.8412819 -28.5 99.5625 C-29.70659665 98.08191633 -30.91497112 96.60277995 -32.125 95.125 C-34.69324524 91.89072652 -37.2201002 88.62687503 -39.73046875 85.34765625 C-47.42474808 75.32038965 -55.15436588 65.55367772 -64.3671875 56.85546875 C-65.27726562 55.99566406 -66.18734375 55.13585937 -67.125 54.25 C-68.35089844 53.14205078 -68.35089844 53.14205078 -69.6015625 52.01171875 C-72.07355545 48.82254267 -72.43173936 46.56712439 -72.5 42.5625 C-71.48828125 40.55078125 -71.48828125 40.55078125 -69.8125 38.875 C-69.15765625 38.20597656 -68.5028125 37.53695312 -67.828125 36.84765625 C-67.05984375 36.09355469 -66.2915625 35.33945313 -65.5 34.5625 C-64.22382813 33.19931641 -64.22382813 33.19931641 -62.921875 31.80859375 C-49.60973635 17.71585534 -21.03174804 -8.63803937 0 0 Z " fill="#FFD0CF" transform="translate(468.5,103.4375)"/>
<path d="M0 0 C8.29678874 4.98891872 14.0846743 12.51945066 20 20 C20.64710938 20.70125 21.29421875 21.4025 21.9609375 22.125 C26.36936559 27.09224292 26.29321416 30.77145865 25.97265625 37.28125 C25.80649382 40.18472383 25.80649382 40.18472383 27.5625 43.1875 C29.95115089 45.30811139 29.95115089 45.30811139 33.40625 45.2109375 C37 46 37 46 39.21484375 48.80859375 C39.82263699 50.00171252 40.39580395 51.21295502 40.9375 52.4375 C41.23108398 53.06841553 41.52466797 53.69933105 41.82714844 54.34936523 C44.01769925 59.36206295 45.80383056 64.63648253 44 70 C40.93064782 73.52948434 37.59158052 76.14184071 33.6875 78.6875 C32.09615234 79.72583984 32.09615234 79.72583984 30.47265625 80.78515625 C26.22014605 83.50913672 21.94344662 86.19487668 17.64526367 88.84619141 C13.50734769 91.40421124 9.42355372 94.02905627 5.3671875 96.71484375 C4.39571777 97.35147949 3.42424805 97.98811523 2.42333984 98.64404297 C0.51223711 99.89821411 -1.39147392 101.16374113 -3.28662109 102.44189453 C-8.63640899 105.93147946 -12.54856306 107.97851908 -19 108 C-23.08416715 106.00329606 -24.32288669 103.63794577 -25.75 99.5 C-26.18982891 98.00662743 -26.60746271 96.50649447 -27 95 C-27.17273438 94.38342529 -27.34546875 93.76685059 -27.5234375 93.1315918 C-32.59967657 70.42634418 -25.78773499 40.83085813 -19.0625 19.0625 C-18.70128052 17.89001709 -18.70128052 17.89001709 -18.33276367 16.69384766 C-16.43225448 10.78970852 -14.30560802 4.71732373 -10.25 -0.0625 C-6.57758921 -1.59267116 -3.64343499 -1.30661117 0 0 Z " fill="#FED0CF" transform="translate(152,52)"/>
<path d="M0 0 C3.1093146 1.28478799 3.1093146 1.28478799 6.375 1.97265625 C6.96023437 1.67101562 7.54546875 1.369375 8.1484375 1.05859375 C13.96605265 -1.77876943 23.16098895 -0.76581104 29.3671875 0.66015625 C38.5699332 4.10043502 44.98191759 9.88303263 50.375 17.97265625 C50.375 19.29265625 50.375 20.61265625 50.375 21.97265625 C51.26960938 21.91464844 52.16421875 21.85664063 53.0859375 21.796875 C61.56091131 21.48064463 67.26282234 22.29932878 74.375 26.97265625 C75.7053125 27.80796875 75.7053125 27.80796875 77.0625 28.66015625 C84.56560185 36.1632581 89.36752071 44.60633458 89.75 55.28515625 C89.52216613 63.04235694 87.39259924 70.30867686 84.6875 77.53515625 C82.53059955 83.80151967 82.51603088 90.49506394 84.375 96.84765625 C87.10324378 106.30736377 85.33114778 116.12008628 82.625 125.34765625 C82.31916992 126.43723633 82.01333984 127.52681641 81.69824219 128.64941406 C78.35845673 140.37899873 74.71078079 152.02119771 71.08789062 163.66577148 C67.29421176 175.8746432 63.6621697 188.12459364 60.125 200.41015625 C59.8825354 201.25227661 59.6400708 202.09439697 59.39025879 202.96203613 C58.04719889 207.63092134 56.70892053 212.30115208 55.375 216.97265625 C53.60388156 216.49454448 51.83311517 216.01512845 50.0625 215.53515625 C49.07636719 215.26832031 48.09023437 215.00148438 47.07421875 214.7265625 C45.15982474 214.191862 43.26066385 213.60121087 41.375 212.97265625 C42.00645906 206.8366016 43.73589844 201.31952105 45.69140625 195.484375 C46.02384338 194.47599579 46.35628052 193.46761658 46.6987915 192.42868042 C47.40771219 190.27969623 48.11915564 188.13154289 48.83291626 185.98416138 C50.67696345 180.43490143 52.5020121 174.87940105 54.328125 169.32421875 C54.68449539 168.24147171 55.04086578 167.15872467 55.40803528 166.04316711 C58.96981995 155.20271593 62.44100055 144.33102462 65.63452148 133.37548828 C66.375 130.97265625 66.375 130.97265625 67.24243164 128.73779297 C70.05021179 121.08080179 69.50855217 113.44460009 69.25854492 105.43243408 C68.88691424 92.56552 69.00440111 81.66067895 74.02734375 69.640625 C77.02871159 61.47168471 76.63755603 51.90043085 73.3359375 43.828125 C70.21929751 37.81022258 66.35023572 34.7407813 60.2890625 31.875 C55.04940663 30.25253283 49.79482301 30.59038033 44.375 30.97265625 C44.22804688 30.34359375 44.08109375 29.71453125 43.9296875 29.06640625 C41.89977367 21.3200684 38.8960649 14.74670596 31.8125 10.47265625 C25.41310063 7.74404046 17.89262229 7.62795672 11.421875 10.1015625 C9.71956598 10.97511581 8.04057363 11.89689793 6.3984375 12.87890625 C4.375 13.97265625 4.375 13.97265625 1.375 13.97265625 C-0.29166667 12.30598958 -1.95833333 10.63932292 -3.625 8.97265625 C-10.35659063 4.89290435 -16.97121249 5.23196714 -24.625 5.97265625 C-27.69429754 6.86189199 -30.03210882 8.12816775 -32.625 9.97265625 C-33.2953125 10.42769531 -33.965625 10.88273437 -34.65625 11.3515625 C-36.33801043 12.52278851 -37.9854706 13.7430092 -39.625 14.97265625 C-37.62870319 7.87471204 -32.21412703 2.5304223 -25.9375 -1.02734375 C-17.05031528 -4.99964601 -8.74746334 -3.63175933 0 0 Z " fill="#EF6D00" transform="translate(106.625,309.02734375)"/>
<path d="M0 0 C8.00003215 5.36172368 13.12086218 12.26587234 15.4140625 21.578125 C17.34907802 33.74363923 15.84010668 45.08845737 8.63671875 55.1875 C2.82664602 61.7789708 -4.6806921 65.01438251 -13.3515625 65.73046875 C-20.81314957 65.5388184 -28.49136599 61.46590684 -33.6015625 56.10546875 C-41.17931845 45.73945839 -42.6746768 34.70287536 -41.1640625 22.23046875 C-40.32281411 18.50829712 -39.1103799 15.50271488 -37.1640625 12.23046875 C-36.7515625 11.51632813 -36.3390625 10.8021875 -35.9140625 10.06640625 C-28.1212436 -1.75565423 -13.11735319 -6.10042845 0 0 Z " fill="#442C0D" transform="translate(360.1640625,195.76953125)"/>
<path d="M0 0 C7.24612545 4.55546857 10.9984917 11.11714603 14 19 C16.34304095 30.09415776 15.39934456 41.03577687 9.54296875 50.859375 C5.18635243 56.90349081 -0.58750234 61.59461034 -8 63 C-15.38478145 63.83406796 -21.67509979 63.76916497 -28.0078125 59.59375 C-36.25942991 52.99245607 -41.12683246 44.42192408 -42.375 33.8125 C-42.60721718 22.43385827 -40.14806691 12.71210975 -32.296875 4.140625 C-23.14873015 -4.18336266 -11.04397326 -5.64379516 0 0 Z " fill="#442C0D" transform="translate(212,155)"/>
<path d="M0 0 C4.28722264 3.3345065 8.07368336 6.97105008 9.8125 12.1875 C10.44934965 17.60072203 9.50129831 20.83890718 6.4765625 25.20703125 C-1.08088033 34.20145265 -12.04644387 38.40223597 -23.1875 41.1875 C-24.1775 45.1475 -25.1675 49.1075 -26.1875 53.1875 C-28.66740255 52.88012339 -31.14630735 52.56685917 -33.625 52.25 C-34.33205078 52.16298828 -35.03910156 52.07597656 -35.76757812 51.98632812 C-41.07421875 51.30078125 -41.07421875 51.30078125 -42.1875 50.1875 C-41.88339875 48.12374494 -41.56912264 46.06148569 -41.25 44 C-40.69589089 39.29352224 -40.69589089 39.29352224 -42.65234375 35.23828125 C-44.76893018 33.75545198 -46.95061417 32.48009493 -49.1875 31.1875 C-56.34146211 25.28028647 -62.13783938 17.37568222 -63.49609375 8.07421875 C-63.7560302 3.63954546 -63.44693066 0.84741846 -60.625 -2.6875 C-45.75824219 -17.83476267 -15.80171118 -8.98528675 0 0 Z " fill="#010100" transform="translate(291.1875,223.8125)"/>
<path d="M0 0 C15.37785337 12.56720527 15.37785337 12.56720527 16.5 20.5625 C15.89700381 24.70809883 15.1952384 26.28404736 12 29 C7.18383387 30.34221023 5.19965435 30.53317971 0.625 28.5 C-1.33722682 27.2181874 -3.21128035 25.84419549 -5.09765625 24.453125 C-18.86998022 14.42852859 -33.42885317 8.1725032 -50.453125 6.53125 C-51.17435547 6.4595459 -51.89558594 6.3878418 -52.63867188 6.31396484 C-54.62614424 6.13608515 -56.61787571 6.00778513 -58.609375 5.8828125 C-63.29664847 4.66239337 -64.36775368 3.01737968 -67 -1 C-67.95683996 -4.11254409 -67.5344816 -5.6327659 -67 -9 C-64.83235888 -11.91083236 -63.34478749 -13.62365127 -59.80859375 -14.61328125 C-38.66720309 -17.5242655 -17.16234265 -12.7703106 0 0 Z " fill="#442C0D" transform="translate(244,93)"/>
<path d="M0 0 C6.00706282 4.54537563 6.00706282 4.54537563 7.30078125 7.1328125 C7.64631408 10.14388427 7.87326278 12.22594027 7.30078125 15.1328125 C4.05707712 19.02525746 2.54020566 19.92624177 -2.44921875 20.7578125 C-6.90254417 20.47788919 -10.33150976 18.52357579 -14.203125 16.4375 C-24.23159685 11.19570094 -35.40358913 9.91998799 -46.5703125 10.11328125 C-47.73557465 10.13319878 -47.73557465 10.13319878 -48.92437744 10.15351868 C-52.15036713 10.21804922 -55.37538534 10.2956414 -58.6003418 10.40014648 C-60.98625433 10.47270639 -63.37111967 10.51383915 -65.7578125 10.55078125 C-66.48181747 10.58286179 -67.20582245 10.61494232 -67.95176697 10.647995 C-71.92737741 10.68784831 -73.5231977 10.27561599 -76.65405273 7.7355957 C-79.19588608 4.50072817 -79.45909127 3.01747857 -79.17578125 -0.94140625 C-78.31741448 -4.4100523 -76.52856157 -5.80412503 -73.69921875 -7.8671875 C-51.01427245 -19.20966065 -20.21570001 -13.98423242 0 0 Z " fill="#442C0D" transform="translate(386.69921875,144.8671875)"/>
<path d="M0 0 C16.0243929 0.0750557 32.22782424 6.17647831 46 14 C44.49818341 18.97185243 41.56033853 22.0149775 38.0625 25.6875 C37.52431641 26.26822266 36.98613281 26.84894531 36.43164062 27.44726562 C34.02590691 30.01318383 31.9536444 32.03090374 29 34 C29.99 34.66 30.98 35.32 32 36 C30.74445313 36.04898438 29.48890625 36.09796875 28.1953125 36.1484375 C19.61706011 36.51917143 11.37214514 36.94127579 3 39 C-2.88561562 32.49484589 -4.44661897 27.25620773 -4.3359375 18.45703125 C-3.71903058 12.10862862 -1.8609534 6.08132985 0 0 Z " fill="#FE9A30" transform="translate(317,96)"/>
<path d="M0 0 C27.44845254 9.98798138 27.44845254 9.98798138 31.8984375 16.0546875 C31.67513037 19.70203729 31.51470915 21.43841585 28.8984375 24.0546875 C23.0027077 24.55631997 19.67378099 23.84966522 14.3984375 20.9921875 C-3.1562679 12.11657232 -24.35164062 7.19090751 -44 6.4609375 C-46.60528476 5.95731368 -47.48898989 5.12656871 -49.1015625 3.0546875 C-50.06253451 0.17177148 -50.32777327 -1.31888268 -49.2890625 -4.1953125 C-42.43118385 -14.30165998 -9.01542505 -2.98969108 0 0 Z " fill="#9E9E9C" transform="translate(64.1015625,227.9453125)"/>
<path d="M0 0 C0.75294342 0.05218689 1.50588684 0.10437378 2.28164673 0.15814209 C10.49064688 0.77183341 18.6307307 1.82495041 26.7734375 3.015625 C27.90833618 3.17985962 27.90833618 3.17985962 29.06616211 3.34741211 C38.07780708 4.66384796 47.05470641 6.05602653 55.8984375 8.265625 C56.64399902 8.44254883 57.38956055 8.61947266 58.15771484 8.80175781 C61.51097006 9.7265145 63.18959869 10.5023065 65.375 13.2578125 C66.6221516 16.31380994 66.53265787 17.68702684 65.3984375 20.765625 C64.0925293 22.42260742 64.0925293 22.42260742 62.3984375 23.765625 C56.43670264 23.56085491 50.94594988 22.22877839 45.18774414 20.74755859 C31.24554251 17.17668696 17.45975092 15.4326418 3.14526367 14.23510742 C2.38754669 14.16508011 1.62982971 14.0950528 0.84915161 14.02290344 C-0.57820924 13.89127137 -2.00705698 13.77459797 -3.43704224 13.67546082 C-6.53629191 13.38065438 -8.25841062 13.08746071 -10.56274414 10.92626953 C-12.15562936 7.61321802 -11.50344205 5.24430327 -10.6015625 1.765625 C-6.86509074 -0.72535618 -4.2770555 -0.33269784 0 0 Z " fill="#9F9E9C" transform="translate(432.6015625,330.234375)"/>
<path d="M0 0 C3.10834726 1.47992566 5.97743829 3.27121973 8.875 5.125 C9.67728027 5.62854004 10.47956055 6.13208008 11.30615234 6.65087891 C16.80885722 10.14261362 21.99771465 13.82056615 27 18 C28.25625312 19.01365438 29.51424297 20.0251581 30.7734375 21.03515625 C34.25152084 23.82770079 37.70169547 26.65235621 41.14404297 29.48876953 C42.7645022 30.8082437 44.41326465 32.09280464 46.06640625 33.37109375 C48.2855445 35.15265544 50.25256225 36.75540391 52 39 C52.25 42.875 52.25 42.875 51 46 C48 48 48 48 44.6484375 47.9140625 C40.39621001 46.84872927 38.71027102 45.44174086 35.625 42.375 C29.43008961 36.43467497 23.33310622 31.26110334 15.83349609 27.05322266 C12.87883432 25.35596421 10.03934403 23.48816172 7.1875 21.625 C2.13260194 18.33887576 -2.97320543 15.18826247 -8.20703125 12.19140625 C-10 11 -10 11 -11 9 C-11.57003257 2.72964169 -11.57003257 2.72964169 -9.4375 0 C-6.07739715 -1.37850373 -3.40610182 -0.966724 0 0 Z " fill="#9E9E9C" transform="translate(54,180)"/>
<path d="M0 0 C0.83208984 -0.02900391 1.66417969 -0.05800781 2.52148438 -0.08789062 C8.54224681 -0.15065719 8.54224681 -0.15065719 11.734375 2.140625 C13.69423091 5.069872 13.70198337 6.85811166 13.1875 10.3125 C12.11791992 11.94775391 12.11791992 11.94775391 10.1875 13.3125 C7.68470251 13.72392389 5.38171052 13.9619423 2.86328125 14.0859375 C1.35503539 14.18661614 -0.15318299 14.28770704 -1.66137695 14.38916016 C-2.45178375 14.43743958 -3.24219055 14.48571899 -4.05654907 14.53546143 C-18.89950614 15.45903309 -33.0856499 17.35268864 -47.57446289 20.80566406 C-55.89333519 22.68959325 -55.89333519 22.68959325 -59.25 21.3125 C-60.8125 19.3125 -60.8125 19.3125 -61.25 15.8125 C-60.8125 12.3125 -60.8125 12.3125 -59.55493164 10.66235352 C-57.4997281 9.0701971 -56.04465499 8.68232811 -53.49609375 8.21484375 C-52.22475586 7.97217773 -52.22475586 7.97217773 -50.92773438 7.72460938 C-50.04408203 7.56798828 -49.16042969 7.41136719 -48.25 7.25 C-47.39341797 7.08951172 -46.53683594 6.92902344 -45.65429688 6.76367188 C-43.91910121 6.43856749 -42.18316736 6.1173794 -40.4465332 5.80004883 C-34.03089795 4.61254085 -27.64835904 3.32082785 -21.30859375 1.77734375 C-14.25713321 0.46416096 -7.16047754 0.08517618 0 0 Z " fill="#9F9E9C" transform="translate(491.8125,295.6875)"/>
<path d="M0 0 C2.6628418 0.90698242 2.6628418 0.90698242 5.51171875 2.16796875 C7.09218994 2.85511963 7.09218994 2.85511963 8.70458984 3.55615234 C10.33581787 4.27085693 10.33581787 4.27085693 12 5 C14.10876997 5.87570047 16.21945311 6.74680812 18.33203125 7.61328125 C50.17023969 20.82973563 50.17023969 20.82973563 58 28 C59.0625 31.5 59.0625 31.5 59 35 C57.5 37.5 57.5 37.5 55 39 C49.19863145 38.72306809 45.38701642 36.86254816 40.5625 33.9375 C39.13959649 33.11056407 37.7150727 32.28641077 36.2890625 31.46484375 C35.57137695 31.04960449 34.85369141 30.63436523 34.11425781 30.20654297 C23.3460968 24.06147926 12.17588909 19.32275831 0.54077148 15.05664062 C-0.40854248 14.70150391 -1.35785645 14.34636719 -2.3359375 13.98046875 C-3.18720215 13.67004639 -4.0384668 13.35962402 -4.91552734 13.03979492 C-7 12 -7 12 -9 9 C-8.8125 5.4375 -8.8125 5.4375 -8 2 C-4.69554748 -0.20296835 -3.82398619 -0.37491439 0 0 Z " fill="#9F9E9C" transform="translate(420,354)"/>
<path d="M0 0 C0.76054688 0.0112793 1.52109375 0.02255859 2.3046875 0.03417969 C8.25376361 0.17689742 13.97823476 0.86148831 19.83154297 1.93994141 C22.62192088 2.41935108 25.42090297 2.8228579 28.22265625 3.23046875 C30.50260597 3.57030043 32.78255386 3.91014432 35.0625 4.25 C36.17044922 4.40758789 37.27839844 4.56517578 38.41992188 4.72753906 C39.46857422 4.88834961 40.51722656 5.04916016 41.59765625 5.21484375 C42.54133057 5.35398193 43.48500488 5.49312012 44.45727539 5.63647461 C47.30183004 6.39274651 48.89712331 7.25884539 51 9.3125 C51.73591676 15.19983405 51.73591676 15.19983405 49.85546875 18.04296875 C47.10980646 19.92157979 45.14242947 19.45328783 41.875 19.125 C40.79992187 19.02832031 39.72484375 18.93164062 38.6171875 18.83203125 C35.91441326 18.44383581 33.39137944 17.95977597 30.74609375 17.33203125 C25.59381007 16.14635244 20.44883894 15.63467948 15.1875 15.1875 C13.73935913 15.05686157 13.73935913 15.05686157 12.26196289 14.92358398 C6.25846475 14.41104713 0.36379103 14.16375499 -5.66015625 14.53515625 C-8.78890448 14.23742896 -10.53830488 13.23960634 -13 11.3125 C-13.6640625 9.375 -13.6640625 9.375 -13.625 7.3125 C-13.63789063 6.631875 -13.65078125 5.95125 -13.6640625 5.25 C-13 3.3125 -13 3.3125 -10.9609375 1.58203125 C-7.25070893 -0.00876596 -3.96260734 -0.09764489 0 0 Z " fill="#9E9E9C" transform="translate(40,263.6875)"/>
<path d="M0 0 C1.06244179 -0.00143509 1.06244179 -0.00143509 2.14634705 -0.00289917 C3.65021859 -0.00358053 5.15409307 -0.00172932 6.65795898 0.00244141 C8.93154761 0.00773498 11.20493362 0.00252398 13.47851562 -0.00390625 C20.6809529 -0.00688136 27.75772074 0.11099355 34.90234375 1.1328125 C31.82890885 13.82634851 27.90196022 25.4665111 18.27734375 34.6328125 C13.22092076 36.88011161 8.35244425 36.45029408 2.90234375 36.1328125 C4.73978815 34.90784957 6.60997348 33.72845266 8.52734375 32.6328125 C11.00806645 31.35254988 11.00806645 31.35254988 11.90234375 29.1328125 C12.47407577 25.63095385 12.4569326 23.14433835 10.7265625 19.98828125 C6.66876704 14.45844544 1.74429096 10.27779371 -3.64453125 6.078125 C-5.61470916 4.51578647 -7.37637886 2.95736653 -9.09765625 1.1328125 C-6.09746181 -0.36728472 -3.34284827 0.00286782 0 0 Z " fill="#FE9A30" transform="translate(247.09765625,87.8671875)"/>
<path d="M0 0 C2.9375 1.9375 2.9375 1.9375 5 5 C5.57475365 9.7438622 4.59361575 13.09102588 2 17.0625 C-1.54092009 19.34934422 -3.75437062 19.73348776 -7.90625 19.484375 C-10 19 -10 19 -12.5625 16.875 C-14.26549462 13.46901076 -14.61380432 11.75955144 -14 8 C-12.34976991 4.93528698 -10.943924 2.69221093 -8.125 0.625 C-5.15938245 -0.24724046 -3.08074453 -0.44010636 0 0 Z " fill="#865E22" transform="translate(345,200)"/>
<path d="M0 0 C2.5 2.125 2.5 2.125 4 5 C4 10.30081412 2.66793215 13.22091839 -1 17 C-4.19231295 18.59615648 -7.52717285 18.37005535 -11 18 C-12.9375 17 -12.9375 17 -14 15 C-15.39410327 10.07963553 -15.39410327 10.07963553 -15 7 C-11.11509367 0.44578706 -7.56522182 -1.82608802 0 0 Z " fill="#865E23" transform="translate(196,161)"/>
<path d="M0 0 C0.66 0.33 1.32 0.66 2 1 C-0.64 3.64 -3.28 6.28 -6 9 C-6.33 8.34 -6.66 7.68 -7 7 C-4.97117094 4.05819786 -2.94180214 2.02882906 0 0 Z " fill="#FA8E10" transform="translate(71,320)"/>
</svg>
